<svg width="50" height="50" viewBox="0 0 50 50" fill="none" xmlns="http://www.w3.org/2000/svg">
<path d="M17.8426 25.9389L17.8425 25.9389C17.4569 26.2815 17.1497 26.7033 16.9418 27.1755C16.7339 27.6476 16.6303 28.159 16.638 28.6748L16.6381 28.6823H16.638C16.638 29.8218 16.8659 30.6686 17.2479 31.3064C17.6281 31.941 18.1833 32.4062 18.9035 32.7474C20.3752 33.4445 22.4741 33.599 24.9635 33.599H25.0391C27.527 33.599 29.626 33.4439 31.0981 32.7464C31.8186 32.405 32.374 31.9397 32.7544 31.3052C33.1366 30.6675 33.3646 29.821 33.3646 28.6823C33.3646 27.6594 33.0104 26.7206 32.1541 25.9334L17.8426 25.9389ZM17.8426 25.9389L17.8488 25.9332M17.8426 25.9389L17.8488 25.9332M17.8488 25.9332C18.511 25.3243 19.4312 25.1474 20.6746 25.1585C21.2419 25.1636 21.849 25.2068 22.5057 25.2535C22.5636 25.2576 22.6218 25.2617 22.6805 25.2659C23.3981 25.3166 24.1661 25.3672 24.9609 25.3672H25.0391M17.8488 25.9332L25.0391 25.3672M25.0391 25.3672C25.8339 25.3672 26.6019 25.3166 27.3196 25.2659M25.0391 25.3672L27.3196 25.2659M27.3196 25.2659C27.3781 25.2617 27.4363 25.2576 27.4941 25.2535M27.3196 25.2659L27.4941 25.2535M27.4941 25.2535C28.1509 25.2068 28.7582 25.1636 29.3258 25.1585M27.4941 25.2535L29.3258 25.1585M29.3258 25.1585C30.5692 25.1474 31.4903 25.3242 32.1538 25.9332L29.3258 25.1585ZM31.3906 29.0885C31.3906 28.3414 31.1726 27.6451 30.7952 27.1231C30.4183 26.6017 29.8543 26.224 29.1823 26.224C28.5094 26.224 27.9448 26.6013 27.5673 27.1229C27.1894 27.645 26.9714 28.3414 26.9714 29.0885C26.9714 29.8356 27.1894 30.5331 27.5669 31.0562C27.9438 31.5787 28.5084 31.9583 29.1823 31.9583C29.8561 31.9583 30.4208 31.5787 30.7975 31.056C31.1746 30.5329 31.3919 29.8355 31.3906 29.0885ZM31.3906 29.0885H30.8906L31.3906 29.0875C31.3906 29.0879 31.3906 29.0882 31.3906 29.0885ZM24.9972 35.763L25.0028 35.763C25.944 35.7578 26.8334 35.7578 27.2812 35.7578C28.2791 35.7578 30.8481 35.7241 33.177 34.4377C34.3506 33.7894 35.465 32.8223 36.2831 31.3878C37.1004 29.9548 37.6061 28.0831 37.6068 25.6486V25.6484C37.6068 23.4496 36.8812 21.7934 35.6879 20.4193C35.6919 20.3941 35.6956 20.369 35.6989 20.3442C35.7186 20.1978 35.7319 20.0244 35.7383 19.8306C35.7511 19.4423 35.7369 18.9528 35.6836 18.3996C35.5769 17.2945 35.3113 15.9103 34.7721 14.5501L34.6317 14.196L34.253 14.2373L34.3073 14.7344C34.253 14.2373 34.2528 14.2374 34.2526 14.2374L34.2521 14.2374L34.2509 14.2376L34.2479 14.2379L34.2393 14.2389L34.2118 14.2425C34.1889 14.2457 34.1569 14.2504 34.1161 14.2571C34.0346 14.2706 33.9178 14.2923 33.7683 14.326C33.4691 14.3934 33.0386 14.509 32.4953 14.7034C31.4452 15.0791 29.9756 15.7486 28.2187 16.9322C27.3892 16.7448 26.1768 16.6562 25 16.6562C23.825 16.6562 22.6103 16.7445 21.7829 16.9342C20.0265 15.7509 18.5572 15.0816 17.5073 14.706C16.964 14.5116 16.5335 14.396 16.2343 14.3286C16.0848 14.2949 15.968 14.2732 15.8865 14.2597C15.8457 14.253 15.8137 14.2483 15.7908 14.2451L15.7633 14.2415L15.7547 14.2405L15.7517 14.2402L15.7505 14.24L15.75 14.24C15.7498 14.24 15.7496 14.2399 15.6953 14.737L15.7496 14.2399L15.3709 14.1986L15.2305 14.5527C14.6913 15.913 14.4263 17.2966 14.32 18.4013C14.2668 18.9544 14.2527 19.4437 14.2654 19.8319C14.2717 20.0257 14.2849 20.199 14.3043 20.3453C14.3076 20.3704 14.3113 20.3958 14.3153 20.4212C13.1217 21.7954 12.3958 23.4518 12.3958 25.651C12.3958 28.0844 12.9011 29.9552 13.718 31.3878C14.5357 32.8218 15.6499 33.7887 16.8233 34.437C19.1518 35.7235 21.7208 35.7578 22.7187 35.7578C23.1666 35.7578 24.056 35.7578 24.9972 35.763ZM18.6068 29.0885C18.6068 29.8352 18.8239 30.5326 19.2007 31.0558L22.526 29.0885H23.026C23.026 29.0882 23.026 29.0879 23.026 29.0875C23.0258 28.3408 22.8078 27.6447 22.4301 27.1229C22.0526 26.6013 21.488 26.224 20.8151 26.224C20.142 26.224 19.5779 26.6015 19.2011 27.1233C18.824 27.6455 18.6068 28.3418 18.6068 29.0885ZM0.5 25C0.5 11.4689 11.4689 0.5 25 0.5C38.5311 0.5 49.5 11.4689 49.5 25C49.5 38.5311 38.5311 49.5 25 49.5C11.4689 49.5 0.5 38.5311 0.5 25Z" fill="black" stroke="black"/>
</svg>
